<svg id="visual" viewBox="0 0 1600 400" width="1600" height="400" xmlns="http://www.w3.org/2000/svg" xmlns:xlink="http://www.w3.org/1999/xlink" version="1.1"><rect x="0" y="0" width="1600" height="400" fill="#1A1D22"></rect><path d="M0 264L229 257L457 250L686 226L914 253L1143 269L1371 268L1600 245L1600 401L1371 401L1143 401L914 401L686 401L457 401L229 401L0 401Z" fill="#8d9fba"></path><path d="M0 258L229 282L457 255L686 264L914 266L1143 237L1371 246L1600 288L1600 401L1371 401L1143 401L914 401L686 401L457 401L229 401L0 401Z" fill="#8697b1"></path><path d="M0 266L229 298L457 285L686 277L914 305L1143 288L1371 294L1600 294L1600 401L1371 401L1143 401L914 401L686 401L457 401L229 401L0 401Z" fill="#8090a8"></path><path d="M0 296L229 311L457 282L686 306L914 287L1143 293L1371 297L1600 304L1600 401L1371 401L1143 401L914 401L686 401L457 401L229 401L0 401Z" fill="#7988a0"></path><path d="M0 314L229 297L457 322L686 325L914 288L1143 311L1371 311L1600 308L1600 401L1371 401L1143 401L914 401L686 401L457 401L229 401L0 401Z" fill="#728197"></path><path d="M0 338L229 310L457 306L686 305L914 319L1143 341L1371 311L1600 340L1600 401L1371 401L1143 401L914 401L686 401L457 401L229 401L0 401Z" fill="#6c798f"></path><path d="M0 342L229 338L457 347L686 349L914 338L1143 347L1371 339L1600 331L1600 401L1371 401L1143 401L914 401L686 401L457 401L229 401L0 401Z" fill="#667286"></path><path d="M0 360L229 354L457 349L686 337L914 365L1143 363L1371 356L1600 362L1600 401L1371 401L1143 401L914 401L686 401L457 401L229 401L0 401Z" fill="#5f6b7e"></path><path d="M0 370L229 369L457 364L686 370L914 377L1143 358L1371 357L1600 379L1600 401L1371 401L1143 401L914 401L686 401L457 401L229 401L0 401Z" fill="#596476"></path><path d="M0 372L229 374L457 377L686 373L914 386L1143 386L1371 378L1600 380L1600 401L1371 401L1143 401L914 401L686 401L457 401L229 401L0 401Z" fill="#535d6e"></path></svg>